# xmcd
#
# Track frame offsets:
#        150
#        19351
#        38172
#        58001
#        77505
#        96455
#        114016
#        135398
#        156364
#        176437
#        195847
#        216536
#        236439
#        255512
#        275206
#        295733
#
# Disc length: 4189 seconds
#
# Revision: 0
# Processed by: cddbd v1.5.1PL0 Copyright (c) Steve Scherf et al.
# Submitted via: ExactAudioCopy v0.95a5
#
DISCID=dd105b10
DTITLE=Various Artist - ALWAYS HARDCORE VOL.15 [CD2)
DYEAR=2004
DGENRE=GABBER
TTITLE0=DJ Mad Dog - Cocaine from Bolivia
TTITLE1=American Hardcore Alliance 2 - Nowhere to hide (Omar Santana m
TTITLE1=ix)
TTITLE2=Tha Playah - Rotterdam nightmare
TTITLE3=Re-Style - Sacrifice
TTITLE4=Meagashira feat. Jay Capone - Ego
TTITLE5=System 3 - Smash it (Right mix)
TTITLE6=The Viper and Tommyknocker - The prophecy unfolds
TTITLE7=DJ Paul - I am a god (Evil Activities rmx)
TTITLE8=Outblast - Hardcore time (Headbanger rmx)
TTITLE9=Meccano Twins - Kick type 2
TTITLE10=Nuclear Device - I'm a killah
TTITLE11=Impulse Factory vs Ferron - Time of pain
TTITLE12=J.D.A. - Raw power
TTITLE13=Jappo and Lancinhouse - Exlxaxl (DT 6 remix)
TTITLE14=Gabber Mafia - Gabber is not fashion (The Stunned Guys rmx)
TTITLE15=Killerloop - Burnout
EXTD=
EXTT0=
EXTT1=
EXTT2=
EXTT3=
EXTT4=
EXTT5=
EXTT6=
EXTT7=
EXTT8=
EXTT9=
EXTT10=
EXTT11=
EXTT12=
EXTT13=
EXTT14=
EXTT15=
PLAYORDER=
